<?xml version="1.0" encoding="utf-8"?>
<!-- Generator: Adobe Illustrator 26.2.1, SVG Export Plug-In . SVG Version: 6.00 Build 0)  -->
<svg version="1.1" id="Слой_1" xmlns="http://www.w3.org/2000/svg" xmlns:xlink="http://www.w3.org/1999/xlink" x="0px" y="0px"
	 viewBox="0 0 140 110" style="enable-background:new 0 0 140 110;" xml:space="preserve">
<style type="text/css">
	.st0{fill:none;}
	.st1{fill:#282E59;}
	.st2{fill:#FFFFFF;}
	.st3{fill:#B7B9C6;}
	.st4{fill:#151841;}
	.st5{fill:#4750A1;stroke:#151841;stroke-width:1.702;stroke-miterlimit:10;}
	.st6{fill:#F06529;stroke:#151841;stroke-width:1.702;stroke-linejoin:round;stroke-miterlimit:10;}
	.st7{fill:none;stroke:#151841;stroke-width:1.702;stroke-linecap:round;stroke-linejoin:round;stroke-miterlimit:10;}
</style>
<path class="st0" d="M11.9,17.2h126.1V110H11.9V17.2z"/>
<path class="st1" d="M132.5,85c-2.3-2.8-8.6-3.6-8.6-3.6c0-0.7,0.4-4.1,0.6-4.8c0.4-1.3,0.5-2,0.5-2.5c2.1-2.3,3.2-4.6,3.2-4.8
	l0.6-1.3l-1.3,0.6c-0.3,0.2-0.7,0.3-1,0.5c1.5-2.7,2-7.6,2-7.9l0.1-1l-0.9,0.6c0,0-2,1.3-4.1,0.7c-1.6-0.5-2.8-1.9-3.7-4.3l0-0.1
	l0,0c0-0.1,0-0.2,0.1-0.3c0.5-1.2,1.1-2.4,1.5-3.6c0.7-2.2,0.7-4.5-0.2-6.7c-0.7-1.5-0.8-1.6-2.4-1.1c-2.3,0.6-4.2,2-5.9,3.7
	c-0.2,0.2-0.5,0.3-0.7,0.3c-1.6-0.6-4.3-1.3-6.8-0.7l-0.1,0l-0.1,0c-2.5-0.6-5.2,0.1-6.8,0.7c-0.2,0-0.5-0.1-0.7-0.3
	c-1.7-1.7-3.6-3-5.9-3.7C90.1,45,90,45,89.4,46.5c-0.9,2.2-0.9,4.4-0.2,6.7c0.4,1.2,1,2.4,1.5,3.6c0,0.1,0,0.2,0.1,0.3l0,0l0,0.1
	c-0.9,2.3-2.2,3.8-3.7,4.3c-2.1,0.6-4.1-0.6-4.1-0.7l-0.9-0.6l0.1,1c0,0.2,0.5,5.1,2,7.9c-0.3-0.1-0.7-0.3-1-0.5l-1.3-0.6l0.6,1.3
	c0.1,0.2,2,4.3,5.8,7.1l0,0.2c0.1,0.7,0.3,1.3,0.5,2l0.1,0.3L88.2,79l0.7,0.3c0.3,0.8,0.6,1.5,1.1,2.3l0.3,0.6
	c-0.2,0-0.4-0.1-0.6-0.1l0.5,0.2c-1.2,0-7.4,0.4-10.4,4.8c-2.4,3.5-4.2,22.9-4.2,22.9h62.4C137.9,110,136.9,90.5,132.5,85z"/>
<path class="st2" d="M99.5,70.1c-1.6-0.4-2.3-1.5-3-2.2c1.9,0.2,4.8,1,5.3,1.5C101.2,70.2,100.4,70.3,99.5,70.1z M111.3,69.4
	c0.6-0.6,3.5-1.3,5.3-1.5c-0.7,0.7-1.4,1.8-3,2.2C112.8,70.3,112,70.2,111.3,69.4z"/>
<path class="st0" d="M11.9,17.2h126.1V110H11.9V17.2z"/>
<path class="st1" d="M68.7,88.6C66,86.1,60.2,85,60.2,85c0-0.7,0.4-4.1,0.6-4.8c0.4-1.3,0.5-2,0.5-2.4c2.1-2.3,3.1-4.6,3.2-4.8
	l0.6-1.3l-1.3,0.6c-0.3,0.2-0.7,0.3-1,0.5c1.5-2.7,2-7.6,2-7.8l0.1-1l-0.9,0.6c0,0-2,1.3-4.1,0.7c-1.5-0.5-2.8-1.9-3.7-4.3l0-0.1
	l0,0c0-0.1,0-0.2,0.1-0.3c0.5-1.2,1.1-2.4,1.5-3.6c0.7-2.2,0.7-4.5-0.2-6.6c-0.7-1.5-0.8-1.6-2.4-1.1c-2.3,0.6-4.2,2-5.9,3.7
	c-0.2,0.2-0.5,0.3-0.7,0.3c-1.6-0.6-4.3-1.3-6.8-0.7l-0.1,0l-0.1,0c-2.5-0.6-5.2,0.1-6.8,0.7c-0.2,0-0.5-0.1-0.7-0.3
	c-1.7-1.6-3.6-3-5.9-3.7c-1.6-0.4-1.7-0.4-2.4,1.1c-0.9,2.2-0.9,4.4-0.2,6.6c0.4,1.2,1,2.4,1.5,3.6c0,0.1,0,0.2,0.1,0.3l0,0l0,0.1
	c-0.9,2.3-2.2,3.8-3.7,4.3c-2.1,0.6-4.1-0.6-4.1-0.7L18.5,64l0.1,1c0,0.2,0.5,5.1,2,7.8c-0.3-0.1-0.7-0.3-1-0.5l-1.3-0.6l0.6,1.3
	c0.1,0.2,2,4.3,5.8,7.1l0,0.2c0.1,0.7,0.3,1.3,0.5,1.9l0.1,0.3l-0.6,0.1l0.7,0.3c0.3,0.8,0.6,1.5,1.1,2.3l0.3,0.5
	c-0.2,0-0.4-0.1-0.6-0.1l0.4,0.2c-1.2,0-7.4,0.4-10.4,4.8c-2.4,3.5-4.2,19.4-4.2,19.4h58.8l0.2-13.9C71.1,96.1,71.7,91.2,68.7,88.6z
	"/>
<path class="st2" d="M35.9,73.7c-1.6-0.4-2.3-1.5-3-2.2c1.9,0.2,4.7,1,5.3,1.5C37.6,73.8,36.8,73.9,35.9,73.7z M47.7,73
	c0.5-0.5,3.4-1.3,5.3-1.5c-0.7,0.7-1.4,1.8-3,2.2C49.1,73.9,48.4,73.8,47.7,73z"/>
<path class="st0" d="M11.9,17.2h126.1V110H11.9V17.2z"/>
<path class="st3" d="M62.7,70.7l24.2,2c0,0,8.9,10.3,8.6,12.5c-0.4,2.2,2.2,12.7-2.4,15.1s-21.6,5.6-23.9,5.1s-2.9,2.4-7.6-4
	c-4.7-6.4-4.7-10.2-4.7-13.3C56.7,85.1,62.7,70.7,62.7,70.7z"/>
<path class="st0" d="M11.9,17.2h126.1V110H11.9V17.2z"/>
<path class="st3" d="M92.3,70.5c-0.8,0.1-1,0.4-1,0.5c0,0.6,0.6,0.3,3,1.2c-2.8,0.7-6.6,1.3-9.2,0.9c0.3-0.7,0.6-1.5,0.8-2.4
	c0.1-0.4,0.3-1,0.4-1.3c2.4-0.4,1.5-0.7,3.8-1.1l1.1-0.3c-0.3-0.1,1.5-0.5,1.3-0.6c-0.3-0.2-0.6-0.4-1-0.7c5.7-3.2,9.6-7.7,12-13.8
	c-5.4-0.9-7.7-2.7-8.5-6.7c-4.1-0.8-7.6,0.4-10.7,3.1c-0.1-0.8-0.3-1.5-0.4-2.5c-2.6,4.1-3.3,4.7-4.9,5.2c-1.8-3.5-2.3-7.4-3.1-11.2
	v-0.1l0,0l0,0v0.1c-0.8,3.8-1.2,7.7-3.1,11.2c-1.7-0.4-2.3-1.1-4.9-5.2c-0.2,1-0.3,1.7-0.4,2.5c-3.1-2.7-6.6-4-10.7-3.1
	c-0.8,3.9-3.1,5.8-8.5,6.7c2.4,6.1,6.3,10.6,12,13.8c-0.4,0.3-0.7,0.5-1,0.7c-0.3,0.1-0.6,0.2-0.9,0.4c2.4,0.4,4.7,1.2,7.1,1.7
	c0.1,0.4,0.3,0.9,0.4,1.3c0.2,0.9,0.5,1.7,0.8,2.4c-2.6,0.5-6.4-0.2-9.2-0.9c3-0.4,3-0.7,3-1.2c0-0.2-0.1-0.7-0.8-0.8
	c-8-1-13.2-8.1-15.3-11.5c2.1,0.9,2.3,0.6,2.6,0.3c0.2-0.3,0.3-0.7-0.3-1.3c-2.2-2.2-3.2-8.2-3.5-11c1.4,0.6,3.6,1.2,6,0.5
	c2.8-0.9,4.9-3.3,6.5-7.2l0-0.1l0.5,0.2c0.2-0.3,0.4-0.6,0.5-1c0.1-0.4,0.1-0.9,0-1.3c-1.1-3-1.9-6-1.8-9.2c0-0.9,0.3-1.7,0.4-2.7
	c2.1,0.9,3.6,2.1,4.9,3.6c0.8,0.9,1.4,1.8,2.2,2.7c1.2,1.3,3.5,0.8,3.8-0.9c0.1-0.5-0.4-1.1-0.7-1.6c-0.1-0.1-0.2-0.2-0.3-0.2
	c1.9-0.7,6.4-2.2,10.2-1.3c0.2,0,0.3,0,0.5-0.1c0.1,0.1,0.3,0.1,0.5,0.1c3.8-0.9,8.3,0.6,10.2,1.3c-0.1,0.1-0.1,0.2-0.3,0.2
	c-0.3,0.6-0.8,1.2-0.7,1.6c0.4,1.7,2.7,2.2,3.8,0.9c0.8-0.9,1.5-1.8,2.2-2.7c1.3-1.5,2.8-2.8,4.9-3.6c0.1,1,0.4,1.9,0.4,2.7
	c0.1,3.2-0.8,6.2-1.8,9.2c-0.1,0.4-0.1,0.9,0,1.3c0.1,0.4,0.3,0.7,0.5,1c0.2-0.1,0.3-0.2,0.5-0.2l0,0.1c1.5,3.9,3.7,6.3,6.5,7.2
	c2.4,0.8,4.7,0.1,6-0.5c-0.4,2.7-1.4,8.8-3.5,11c-0.6,0.6-0.5,1-0.3,1.3c0.3,0.4,0.5,0.6,2.6-0.3C105.3,62.2,100.4,69.5,92.3,70.5
	L92.3,70.5z"/>
<path class="st0" d="M11.9,17.2h126.1V110H11.9V17.2z"/>
<path class="st2" d="M108.4,51.4c-0.8,1.8-2.2,2.2-2.2,2.2v-3.2c-3.2,0.3-8.4,0.7-9.1-6.5l-0.1-0.1c-1.4-0.8-2.8-1.4-4.4-1.6
	c-0.5-0.1-1-0.1-1.4-0.1l1.2-2c0,0-6.9-0.4-10.8,3.6c-0.4,0.5,0-2.6,0-2.6s-2.2,0.5-4.9,2.6l-0.8,2.6l-0.8-2.6
	c-2.7-2.2-4.9-2.6-4.9-2.6s0.4,3,0,2.6c-3.9-4-10.8-3.6-10.8-3.6l1.2,2c-0.5,0-0.9,0-1.4,0.1c-1.6,0.2-3.1,0.8-4.4,1.6l-0.1,0.1
	c-0.7,7.2-5.9,6.8-9.1,6.5v3.2c0,0-1.4-0.4-2.2-2.2l-0.2,0.8l0.2,1c4.6,10.2,9.5,11.5,16.8,13.4l2.2,0.2l3,1.5l0.3,2.1
	c0.7,2.6,1.7,3.4,3.9,4.9l0.9,0.6l2.6-1.4l2.7-0.3l2.8,0.3l2.1,1.1l1.1,0.3c2.2-1.5,3.5-3,4.2-5.6l0.3-2.1l3-1.5l2.2-0.2
	c7.3-1.9,12.9-4.4,17.4-14.7L108.4,51.4L108.4,51.4z"/>
<path class="st0" d="M11.9,17.2h126.1V110H11.9V17.2z"/>
<path class="st4" d="M74.2,65.1c1.2-0.6,2.7-0.6,3.8,0.1l0,0c1.2,0.7,1.3,1.8,0.5,2.9l-0.1,0.2c-2.1,2.8-3.6,2.1-5.3-0.6
	c-0.6-0.9-0.3-1.8,0.6-2.3C73.8,65.3,74,65.2,74.2,65.1z"/>
<path class="st0" d="M11.9,17.2h126.1V110H11.9V17.2z"/>
<path class="st4" d="M108.8,56.4c-0.5,0.2-1,0.5-1.5,0.7c2.3-4.1,2.9-11.3,3-11.7l0.1-1.5l-1.3,0.9c0,0-3,1.9-6.1,1
	c-2.3-0.7-4.2-2.9-5.5-6.3l-0.1-0.1l0,0c0-0.2,0-0.4,0.1-0.5c0.7-1.8,1.6-3.5,2.2-5.4c1-3.3,1.1-6.6-0.3-9.9c-1-2.3-1.1-2.3-3.5-1.7
	c-3.5,0.9-6.2,3-8.8,5.4c-0.4,0.3-0.7,0.5-1,0.5c-2.4-0.8-6.4-1.9-10.1-1l-0.1,0.1l-0.1-0.1c-3.7-0.9-7.7,0.2-10.1,1
	c-0.4,0-0.7-0.1-1-0.5c-2.5-2.4-5.3-4.5-8.8-5.4c-2.4-0.6-2.5-0.6-3.5,1.7c-1.4,3.2-1.3,6.6-0.3,9.9c0.5,1.8,1.5,3.6,2.2,5.4
	c0.1,0.2,0.1,0.3,0.1,0.5l0,0l-0.1,0.1c-1.4,3.5-3.2,5.6-5.5,6.3c-3.1,1-6-1-6.1-1l-1.3-0.9l0.1,1.5c0,0.4,0.7,7.6,3,11.7
	c-0.5-0.2-1-0.5-1.5-0.7l-1.9-0.9l0.9,1.9c0.2,0.5,4.9,10.5,14.2,13.6c-0.8,0.1-1.7,0.2-2.6,0.3l-2.9,0.3l2.8,1.1
	c0.3,0.1,6.4,2.1,11.2,2.1c1,0,1.9-0.1,2.7-0.3c0.4,0.5,0.8,1,1.4,1.5c0.5,0.4,0.9,0.6,1.2,0.7c0.2,0,0.5,0,0.5,0l1.6-0.8l0.9,0.4
	c1.8,0.9,3.9,0.9,5.7,0l0.9-0.4l1.6,0.8c0,0,0.4,0,0.5,0c0.3-0.1,0.7-0.2,1.2-0.7c0.5-0.4,1-0.9,1.4-1.5c0.8,0.2,1.7,0.3,2.7,0.3
	c4.8,0,10.9-2,11.2-2.1l3.2-1l-3.3-0.4c-0.8-0.1-1.7-0.2-2.6-0.3c9.3-3.1,14-13.1,14.2-13.6l0.9-1.9L108.8,56.4L108.8,56.4z
	 M81.3,75.2c-2.6-1.6-4-2.4-5.5-2.4h0c-1.4,0-2.9,0.8-5.5,2.4c-3.8-2.2-4.2-9.4-2.4-12.8l0.8,2.1c0.6-1.4,1.1-2.8,1.7-4.1
	c1.2-2.3,1.6-2.9,1.6-2.9c1.3-2,6.3-2,7.6,0c0,0,0.5,0.6,1.6,2.9c0.6,1.3,1.1,2.7,1.7,4.1l0.8-2.1C85.5,65.8,85.2,73,81.3,75.2z
	 M65.4,58.4C63,57.8,62,56.2,61,55.1c2.8,0.4,7.1,1.5,7.9,2.3C67.9,58.5,66.7,58.7,65.4,58.4z M82.9,57.4c0.8-0.8,5.1-1.9,7.9-2.3
	c-1,1.1-2,2.7-4.4,3.3C85,58.7,83.9,58.5,82.9,57.4z M92.3,70.5c-0.8,0.1-2.2,0.3-2.1,0.4c0.2,0.3,1.1,0.4,4.1,1.3
	c-2.8,0.7-6.6,1.3-9.2,0.9c0.3-0.7,0.6-1.5,0.8-2.4c0.1-0.4,0.3-1,0.4-1.3l7.1-1.3c-0.3-0.1-0.6-0.6-0.9-0.8c-0.3-0.2-0.6-0.4-1-0.7
	c5.7-3.2,9.6-7.7,12-13.8c-5.4-0.9-7.7-2.7-8.5-6.7c-4.1-0.8-7.6,0.4-10.7,3.1c-0.1-0.8-0.3-1.5-0.4-2.5c-2.6,4.1-3.3,4.7-4.9,5.2
	c-1.8-3.5-2.3-7.4-3.1-11.2v-0.1l0,0l0,0v0.1c-0.8,3.8-1.2,7.7-3.1,11.2c-1.7-0.4-2.3-1.1-4.9-5.2c-0.2,1-0.3,1.7-0.4,2.5
	c-3.1-2.7-6.6-4-10.7-3.1c-0.8,3.9-3.1,5.8-8.5,6.7c2.4,6.1,6.3,10.6,12,13.8c-0.4,0.3-0.7,0.5-1,0.7c-0.3,0.1-0.6,0.2-0.9,0.4
	c2.4,0.4,4.7,1.2,7.1,1.7c0.1,0.4,0.3,0.9,0.4,1.3c0.2,0.9,0.5,1.7,0.8,2.4c-2.6,0.5-6.4-0.2-9.2-0.9c3-0.4,3-0.7,3-1.2
	c0-0.2-0.1-0.7-0.8-0.8c-8-1-13.2-8.1-15.3-11.5c2.1,0.9,3.2,1.6,3.5,1.2c0.2-0.3-0.6-1-1.3-1.8c-1.8-2.4-3.1-8.7-3.4-11.4
	c1.4,0.6,3.6,1.2,6,0.5c2.8-0.9,4.9-3.3,6.5-7.2l0-0.1l0.5,0.2c0.2-0.3,0.4-0.6,0.5-1c0.1-0.4,0.1-0.9,0-1.3c-1.1-3-1.9-6-1.8-9.2
	c0-0.9,0.3-1.7,0.4-2.7c2.1,0.9,3.6,2.1,4.9,3.6c0.8,0.9,1.4,1.8,2.2,2.7c1.2,1.3,3.5,0.8,3.8-0.9c0.1-0.5-0.4-1.1-0.7-1.6
	c-0.1-0.1-0.2-0.2-0.3-0.2c1.9-0.7,6.4-2.2,10.2-1.3c0.2,0,0.8,0,1,0c3.8-0.9,8.3,0.6,10.2,1.3c-0.1,0.1-0.1,0.2-0.3,0.2
	c-0.3,0.6-0.8,1.2-0.7,1.6c0.4,1.7,2.7,2.2,3.8,0.9c0.8-0.9,1.5-1.8,2.2-2.7c1.3-1.5,2.8-2.8,4.9-3.6c0.1,1,0.4,1.9,0.4,2.7
	c0.1,3.2-0.8,6.2-1.8,9.2c-0.1,0.4-0.1,0.9,0,1.3c0.1,0.4,0.3,0.7,0.5,1c0.2-0.1,0.3-0.2,0.5-0.2l0,0.1c1.5,3.9,3.7,6.3,6.5,7.2
	c2.4,0.8,4.7,0.1,6-0.5c-0.4,2.7-1.7,8.5-3.3,11.1c-0.5,0.8-1.3,1.7-1.2,1.9c0.3,0.4,1.1-0.2,3.2-1.1
	C105.3,62.2,100.4,69.5,92.3,70.5z"/>
<path class="st0" d="M11.9,17.2h126.1V110H11.9V17.2z"/>
<ellipse class="st2" cx="76" cy="66.4" rx="1.6" ry="0.6"/>
<path class="st0" d="M11.9,17.2h126.1V110H11.9V17.2z"/>
<path class="st5" d="M64.1,69l4.8,5.8c1.9,2.9,2.9,3.9,3.9,7.2c1.6,5,5.1,10.3,6,17.6l1.5,9.3l-3.8,0c0,0-12.7-9.5-20.2-26.3
	C55.7,81.4,53.8,70,53.8,70l7.5-1C61.4,69,64.1,69,64.1,69z"/>
<path class="st0" d="M11.9,17.2h126.1V110H11.9V17.2z"/>
<path class="st6" d="M119.3,110l0.3-18.4c0,0,0.9-7.3-3.5-11.2c-4.1-3.6-12.7-5.3-12.7-5.3c0-1,0.6-6.1,0.9-7.1
	c1.2-4.2,0.6-4.6,0.6-4.6s-5.2,0-12,1.6c-1.6,0.4-8.9,1.2-11.1,1.3l1.1,5.2h-4.5l-0.1,10.6l-2.4,12.9v14c0,0-3.1-9-6.5-14
	c-3-4.4-7.6-11-8.6-12.8c-0.9-1.6,4.5-3.7,4-5.5l-1-3.6l0.4-4.3l-14-2.4l0.3,1.7c0.2,1,0.5,1.9,0.8,2.9c0.5,1.5,1.2,2.9,1.9,4.2
	l0.6,1c0,0-10.8-0.2-15.8,7.1c-3.5,5.2-4.6,26.5-4.6,26.5"/>
<path class="st0" d="M11.9,17.2h126.1V110H11.9V17.2z"/>
<path class="st7" d="M58,78.5c-1.6-1.5-3.3-2.4-5.2-2.4"/>
<path class="st0" d="M11.9,17.2h126.1V110H11.9V17.2z"/>
<path class="st0" d="M11.9,17.2h126.1V110H11.9V17.2z"/>
<path class="st0" d="M11.9,17.2h126.1V110H11.9V17.2z"/>
<path class="st7" d="M47.1,91.7c0.3,2.3-0.3,11.2-0.3,11.2"/>
<path class="st0" d="M11.9,17.2h126.1V110H11.9V17.2z"/>
<path class="st7" d="M105.8,92.6c-1,8.3,0.4,10.4,0.4,10.4"/>
<path class="st0" d="M11.9,17.2h126.1V110H11.9V17.2z"/>
<path class="st7" d="M103.3,75.2c0,0-8.6-0.5-17.2,7.3"/>
<path class="st0" d="M11.9,17.2h126.1V110H11.9V17.2z"/>
<path class="st7" d="M102.7,75c0,0-6.9-0.6-17.5,3.1"/>
<path class="st0" d="M11.9,17.2h126.1V110H11.9V17.2z"/>
</svg>
