<?xml version="1.0" encoding="utf-8"?>
<!-- Generator: Adobe Illustrator 26.2.1, SVG Export Plug-In . SVG Version: 6.00 Build 0)  -->
<svg version="1.1" id="Слой_1" xmlns="http://www.w3.org/2000/svg" xmlns:xlink="http://www.w3.org/1999/xlink" x="0px" y="0px"
	 viewBox="0 0 639.8 696.9" style="enable-background:new 0 0 639.8 696.9;" xml:space="preserve">
<style type="text/css">
	.st0{fill:#C2B8B0;}
	.st1{fill:#FDE9D1;}
	.st2{fill:#868690;}
	.st3{fill:#FCDCB5;}
	.st4{fill:#474755;}
	.st5{fill:#6F6E73;}
	.st6{fill:#706E74;}
	.st7{fill:#484756;}
</style>
<path class="st0" d="M546.2,100.8c0,0-35.6,25-36.8,25.4c-1.2,0.4-40.3,62.6-40.3,62.6L348.6,199L257.9,96.9l-23.5,90.4l12.8,93.5
	h2.1h306.6l9.5-111.5L546.2,100.8z"/>
<path class="st1" d="M610.3,512.2c0,0-29.3-111.4-37.4-111.1c-8.1,0.3-161.5-23-161.5-23l-206.3,37.6l-12.5,102.2
	c-0.5,1-0.2,2.3-0.3,3.5c15.3-10.1,30.5-20.1,46.7-30.7c0,8.8,0,16.4,0,23.9c30-0.7,57.6,2.9,73.2,32.8c5.7-1.4,11.1-2.7,16.7-4
	c2.3,15.8,11.1,26.1,24.4,33c4.9,1,9.8,3.2,14.5,2.7c9.3-0.9,18.6-2.9,27.7-5.1c4-1,7.5-1.4,11.5,0.1c13.8,4.9,27.8,8.1,42.2,2.3
	c13-6.6,21.7-16.7,24.3-31.5c2,0.2,3.7,0.1,5.2,0.6c7.7,2.7,12.4,1.2,17.3-6.6c9.6-15.5,25.8-21.3,43.2-23.4
	c8-0.9,16.1-0.9,24.6-1.4c0-7.5,0-15,0-23.3c15.9,10.5,31.1,20.5,46.3,30.5c-0.3-1.5-0.2-3.1-0.8-4.4L610.3,512.2z M419.8,548.7
	c-14.9,12.3-35.9,7.4-46.1-10.5c-3.5-6.1-4.9-12.7-5.1-19.5c23.2,1.1,48.5,2.3,65.2,3C433,532.3,428.6,541.4,419.8,548.7z"/>
<path class="st0" d="M631.4,448.6c0,0-69.4-134.6-72-134.6s-120-53.7-120-53.7l-150.3,16.2L186.9,400.6l-21.4,71c0,0.6,0,1.3,0,1.9
	c0.3,0.3,0.5,0.6,0.8,0.9c7.6-2.4,15.2-4.9,23.3-7.5c0,7.8,0,14.8,0,21.8c0,10.3,0,20.7,0,31c0,1.6-0.6,4.5,2.6,1.9
	c0.1-1.2-0.1-2.5,0.3-3.5c17.2-35.8,40.5-66.7,72.5-90.6c6.1-4.6,12.9-7.6,20.7-7.8c13.5-0.3,22.7,6.8,30.2,17.3
	c7.6,10.8,15.6,21.4,23.8,32.7c2.1-5.8,3.9-10.7,5.6-15.7c3.6-10.7,7.2-21.4,10.8-32.1c-0.6-4.8-1.2-9.5-1.8-14.3
	c-1.2-9.9-2.4-19.8-3.6-29.7c81.9-6.2,169.7,7.1,171.2,7.2c3.1,0.2,115.2,86.6,115.2,86.6L631.4,448.6z"/>
<path class="st2" d="M263.7,93.9c9.5,6,18.8,12.8,26.6,20.8c18.5,19.1,36.1,39.1,54,58.8c2.7,3,4.4,3.8,10.8,0.4
	c28.9-15.5,63.6-15.1,92.7,0.1c6.1,3.2,8,2.5,10.5-0.6c8.4-9.9,16.6-19.9,25.5-29.5c17-18.4,33.2-37.8,55.5-50.5
	c4.8-3.1,11,0.2,11.3,0.3c6.3,3.8,9.2,9.9,11.4,16.5c5.5,16.6,7.2,33.8,8.5,51c2.5,33.4,1.5,66.9-0.1,100.3c-0.1,2.7,1,6.7,2.5,8.9
	c21.9,33.4,38,69.6,48.3,108c5.9,21.9,9.9,44.3,14,66.6c1.6,8.6,1.4,17.5,2,26.2c-1.5-2.2-3.4-4.3-4.6-6.8
	c-16.8-35.3-38-67.4-67.1-93.9c-15.5-14.1-32.5-25.9-51.6-34.6c-10.2-4.6-20.6-7.8-32.1-8.1c-13.3-0.3-25,10.3-26.5,23.5
	c-0.7,6.1-1.5,12.2-2.3,18.3c-2.2,17.3-4.3,34.5-6.5,51.8c-2.8,22-5.5,43.9-8.4,65.8c-1.2,9.4-2.8,18.7-4.2,28.1
	c-3.8-4-6.8-9.4-11.4-11.8c-13.3-7.1-27.7-7.3-41.2-0.6c-5.1,2.5-8.5,8.2-12.7,12.5c-0.4-1.4-1-2.8-1.2-4.3
	c-3.8-29.9-7.6-59.7-11.4-89.6c-0.6-4.8-1.2-9.5-1.8-14.3c-2.4-19.1-4.6-38.2-7.2-57.2c-1.5-11.1-11.7-20.9-21.8-21.7
	c-10-0.8-19.6,0.7-28.8,4.5c-35,14.2-62.8,37.6-86.3,66.6c-16.6,20.5-29.8,43.2-41.1,67c-0.9,1.8-2.4,3.3-3.7,5c0-2-0.3-4-0.1-6
	c2.3-17,3.7-34.2,7.2-51c10.5-51.7,28.6-100.6,57.9-145c1.3-1.9,2-4.6,1.9-6.9c-0.3-14.5-1.2-28.9-1.4-43.4
	c-0.6-32.1-0.1-64.3,6.3-95.9c2.2-10.9,4.6-21.8,14-29.1c0.9-0.7,2.5-2.5,5.7-2.6C260,91.4,261.7,92.6,263.7,93.9z M555.5,183.6
	c-0.4-3.5-0.8-6.9-1.2-10.4c-1.7-16-3.1-32-5.3-47.9c-0.7-5.2-3.2-10.1-5.1-16c-3.1,2.2-5.2,3.3-6.9,4.9
	c-11.2,10.7-22.3,21.5-33.3,32.4c-8.3,8.3-14,18-16.1,29.8c-1.3,7.4,0.2,13.5,6.5,18c3.5,2.5,7.3,4.6,10.7,7.4
	c12.8,10.6,25.6,21.2,38.1,32.1c3.9,3.4,6.9,7.9,10.9,12.5c0.6-7,1-13.1,1.5-19.1c0.3-1.2,0.8-2.5,0.8-3.7c0.1-12.1,0.1-24.1,0-36.2
	C556.3,186.1,555.7,184.9,555.5,183.6z M247.2,227.3c0.5,6,0.9,12.1,1.5,18.9c1.2-1.3,2-2.1,2.7-2.9c6.8-7.1,13-14.8,20.5-21
	c11.7-9.8,24.2-18.6,36.4-27.8c4.7-3.6,7.5-8.1,6.9-14.1c-1-10.1-3.9-19.7-10.9-27.3c-10.8-11.6-21.9-22.8-33.1-34
	c-3.4-3.4-7.6-6.1-12.6-10.1c-2,6.4-4.4,11.3-5.1,16.3c-2.4,19.7-4.3,39.5-6.4,59.3c-0.3,1.3-0.8,2.5-0.8,3.8
	c-0.1,11.7-0.1,23.5,0,35.2C246.3,224.8,246.9,226.1,247.2,227.3z"/>
<path class="st3" d="M449.3,576.5c-2.8,12.4-12.1,18.3-22.6,23c-3.1,1.4-6.6,2-9.9,3.2c-0.6,0.2-1,1.2-1.4,1.8c-9.3,0-18.7,0-28,0
	c-1-0.7-1.8-1.7-2.9-2c-10.2-2.9-19.7-7.2-26.3-15.8c-2.2-2.9-3.2-6.7-4.8-10.1c4.9,1,9.8,3.2,14.5,2.7c9.3-0.9,18.6-2.9,27.7-5.1
	c4-1,7.5-1.4,11.5,0.1C420.8,579,434.8,582.2,449.3,576.5z"/>
<path class="st0" d="M610.3,521.5c-0.3-1.5-0.2-3.1-0.8-4.4c-13.5-28.2-31.2-53.4-54-74.7c-6.2-5.8-12.8-11.2-19.7-16
	c-16.5-11.6-35-8.3-46.9,7.8c-8.6,11.6-17.1,23.2-26.2,35.5c-5.6-16.6-10.9-32.2-16.2-47.9c2.2-17.3,4.3-34.5,6.5-51.8
	c0.8-6.1,1.6-12.2,2.3-18.3c1.5-13.2,13.1-23.8,26.5-23.5c11.5,0.3,21.9,3.5,32.1,8.1c19.1,8.7,36,20.5,51.6,34.6
	c29.2,26.5,50.3,58.6,67.1,93.9c1.2,2.4,3,4.5,4.6,6.8c0,0.6,0,1.3,0,1.9c-0.3,0.3-0.5,0.6-0.8,0.9c-3.8-1.3-7.7-2.6-11.6-3.8
	c-3.7-1.2-7.4-2.3-11.8-3.6c0,9.6,0,18.5,0,27.4c0,8.5,0,16.9,0,25.4C612.9,521.2,613.5,524,610.3,521.5z M482.8,376.7
	c9.1-0.1,16.1-7.2,16-16.3c-0.1-8.8-7.5-16.1-16.4-16c-8.9,0.1-16.1,7.5-16,16.4C466.5,369.8,473.7,376.8,482.8,376.7z"/>
<path class="st4" d="M434,515.6c0.6,13.3-3.8,24.5-14.1,33c-14.9,12.3-35.9,7.4-46.1-10.5c-4-7-5.3-14.6-5.1-22.5
	c4.2-4.2,7.7-10,12.7-12.5c13.5-6.6,27.8-6.5,41.2,0.6C427.2,506.3,430.2,511.6,434,515.6z"/>
<path class="st5" d="M555.4,227.3c0-14.6,0-29.1,0-43.7c0.3,1.3,0.8,2.5,0.8,3.8c0.1,12.1,0.1,24.1,0,36.2
	C556.3,224.8,555.7,226.1,555.4,227.3z"/>
<path class="st6" d="M247.2,184.6c0,14.2,0,28.5,0,42.7c-0.3-1.3-0.8-2.5-0.8-3.8c-0.1-11.7-0.1-23.5,0-35.2
	C246.3,187.1,246.9,185.9,247.2,184.6z"/>
<path class="st2" d="M165.5,473.4c0.3,0.3,0.5,0.6,0.8,0.9C166,474,165.8,473.7,165.5,473.4z"/>
<path class="st2" d="M636.3,474.3c0.3-0.3,0.5-0.6,0.8-0.9C636.8,473.7,636.6,474,636.3,474.3z"/>
<path class="st7" d="M482.8,376.7c-9.1,0.1-16.3-6.9-16.4-15.9c-0.1-8.9,7.1-16.3,16-16.4c8.9-0.1,16.3,7.1,16.4,16
	C498.9,369.5,491.8,376.6,482.8,376.7z"/>
<path class="st7" d="M320.2,376.7c-9.1,0.1-16.2-6.8-16.4-15.9c-0.2-8.8,7.2-16.2,16.1-16.3c8.9-0.1,16.3,7.2,16.4,16
	C336.4,369.4,329.2,376.6,320.2,376.7z"/>
</svg>
